<mxfile host="app.diagrams.net" modified="2023-10-21T16:22:26.724Z" agent="Mozilla/5.0 (Windows NT 10.0; Win64; x64) AppleWebKit/537.36 (KHTML, like Gecko) Chrome/118.0.0.0 Safari/537.36 Unique/90.7.3596.97" etag="U2IqRkX6wMTrv68aFox0" version="22.0.6" type="device">
  <diagram name="Page-1" id="zXew3Vii30WxWKLZ7IYh">
    <mxGraphModel dx="1134" dy="1037" grid="1" gridSize="10" guides="1" tooltips="1" connect="1" arrows="1" fold="1" page="1" pageScale="1" pageWidth="850" pageHeight="1100" math="0" shadow="0">
      <root>
        <mxCell id="0" />
        <mxCell id="1" parent="0" />
        <mxCell id="hkACoKRm0wRK34MTO_R9-10" value="" style="verticalLabelPosition=bottom;aspect=fixed;html=1;shape=mxgraph.salesforce.web;" vertex="1" parent="1">
          <mxGeometry x="10" y="300" width="92.41" height="73" as="geometry" />
        </mxCell>
        <mxCell id="hkACoKRm0wRK34MTO_R9-14" value="" style="group" vertex="1" connectable="0" parent="1">
          <mxGeometry x="630" y="50" width="140" height="120" as="geometry" />
        </mxCell>
        <mxCell id="hkACoKRm0wRK34MTO_R9-9" value="" style="sketch=0;html=1;dashed=0;whitespace=wrap;fillColor=#2875E2;strokeColor=#ffffff;points=[[0.005,0.63,0],[0.1,0.2,0],[0.9,0.2,0],[0.5,0,0],[0.995,0.63,0],[0.72,0.99,0],[0.5,1,0],[0.28,0.99,0]];verticalLabelPosition=bottom;align=center;verticalAlign=top;shape=mxgraph.kubernetes.icon;prIcon=api" vertex="1" parent="hkACoKRm0wRK34MTO_R9-14">
          <mxGeometry width="140" height="80" as="geometry" />
        </mxCell>
        <mxCell id="hkACoKRm0wRK34MTO_R9-11" value="Productos" style="text;html=1;strokeColor=none;fillColor=none;align=center;verticalAlign=middle;whiteSpace=wrap;rounded=0;" vertex="1" parent="hkACoKRm0wRK34MTO_R9-14">
          <mxGeometry x="40" y="90" width="60" height="30" as="geometry" />
        </mxCell>
        <mxCell id="hkACoKRm0wRK34MTO_R9-18" value="" style="group" vertex="1" connectable="0" parent="1">
          <mxGeometry x="640" y="230" width="140" height="120" as="geometry" />
        </mxCell>
        <mxCell id="hkACoKRm0wRK34MTO_R9-16" value="" style="sketch=0;html=1;dashed=0;whitespace=wrap;fillColor=#2875E2;strokeColor=#ffffff;points=[[0.005,0.63,0],[0.1,0.2,0],[0.9,0.2,0],[0.5,0,0],[0.995,0.63,0],[0.72,0.99,0],[0.5,1,0],[0.28,0.99,0]];verticalLabelPosition=bottom;align=center;verticalAlign=top;shape=mxgraph.kubernetes.icon;prIcon=api" vertex="1" parent="hkACoKRm0wRK34MTO_R9-18">
          <mxGeometry x="-10" y="-20" width="140" height="80" as="geometry" />
        </mxCell>
        <mxCell id="hkACoKRm0wRK34MTO_R9-17" value="Marcas" style="text;html=1;strokeColor=none;fillColor=none;align=center;verticalAlign=middle;whiteSpace=wrap;rounded=0;" vertex="1" parent="hkACoKRm0wRK34MTO_R9-18">
          <mxGeometry x="30" y="60" width="60" height="30" as="geometry" />
        </mxCell>
        <mxCell id="hkACoKRm0wRK34MTO_R9-20" value="" style="sketch=0;html=1;dashed=0;whitespace=wrap;fillColor=#2875E2;strokeColor=#ffffff;points=[[0.005,0.63,0],[0.1,0.2,0],[0.9,0.2,0],[0.5,0,0],[0.995,0.63,0],[0.72,0.99,0],[0.5,1,0],[0.28,0.99,0]];verticalLabelPosition=bottom;align=center;verticalAlign=top;shape=mxgraph.kubernetes.icon;prIcon=api" vertex="1" parent="1">
          <mxGeometry x="630" y="350" width="140" height="80" as="geometry" />
        </mxCell>
        <mxCell id="hkACoKRm0wRK34MTO_R9-21" value="Proveedores" style="text;html=1;strokeColor=none;fillColor=none;align=center;verticalAlign=middle;whiteSpace=wrap;rounded=0;" vertex="1" parent="1">
          <mxGeometry x="670" y="430" width="60" height="30" as="geometry" />
        </mxCell>
        <mxCell id="hkACoKRm0wRK34MTO_R9-22" value="" style="sketch=0;html=1;dashed=0;whitespace=wrap;fillColor=#2875E2;strokeColor=#ffffff;points=[[0.005,0.63,0],[0.1,0.2,0],[0.9,0.2,0],[0.5,0,0],[0.995,0.63,0],[0.72,0.99,0],[0.5,1,0],[0.28,0.99,0]];verticalLabelPosition=bottom;align=center;verticalAlign=top;shape=mxgraph.kubernetes.icon;prIcon=api" vertex="1" parent="1">
          <mxGeometry x="630" y="510" width="140" height="80" as="geometry" />
        </mxCell>
        <mxCell id="hkACoKRm0wRK34MTO_R9-23" value="Sucursal" style="text;html=1;strokeColor=none;fillColor=none;align=center;verticalAlign=middle;whiteSpace=wrap;rounded=0;" vertex="1" parent="1">
          <mxGeometry x="670" y="590" width="60" height="30" as="geometry" />
        </mxCell>
        <mxCell id="hkACoKRm0wRK34MTO_R9-28" value="" style="endArrow=classic;startArrow=classic;html=1;rounded=0;exitX=1.017;exitY=-0.004;exitDx=0;exitDy=0;exitPerimeter=0;" edge="1" parent="1" source="hkACoKRm0wRK34MTO_R9-10">
          <mxGeometry width="50" height="50" relative="1" as="geometry">
            <mxPoint x="400" y="390" as="sourcePoint" />
            <mxPoint x="630" y="110" as="targetPoint" />
          </mxGeometry>
        </mxCell>
        <mxCell id="hkACoKRm0wRK34MTO_R9-29" value="" style="endArrow=classic;startArrow=classic;html=1;rounded=0;" edge="1" parent="1" target="hkACoKRm0wRK34MTO_R9-16">
          <mxGeometry width="50" height="50" relative="1" as="geometry">
            <mxPoint x="120" y="330" as="sourcePoint" />
            <mxPoint x="660" y="260" as="targetPoint" />
          </mxGeometry>
        </mxCell>
        <mxCell id="hkACoKRm0wRK34MTO_R9-30" value="" style="endArrow=classic;startArrow=classic;html=1;rounded=0;entryX=0.005;entryY=0.63;entryDx=0;entryDy=0;entryPerimeter=0;" edge="1" parent="1" target="hkACoKRm0wRK34MTO_R9-20">
          <mxGeometry width="50" height="50" relative="1" as="geometry">
            <mxPoint x="130" y="360" as="sourcePoint" />
            <mxPoint x="646" y="190" as="targetPoint" />
          </mxGeometry>
        </mxCell>
        <mxCell id="hkACoKRm0wRK34MTO_R9-31" value="" style="endArrow=classic;startArrow=classic;html=1;rounded=0;entryX=0.005;entryY=0.63;entryDx=0;entryDy=0;entryPerimeter=0;" edge="1" parent="1" target="hkACoKRm0wRK34MTO_R9-22">
          <mxGeometry width="50" height="50" relative="1" as="geometry">
            <mxPoint x="120" y="380" as="sourcePoint" />
            <mxPoint x="576" y="360" as="targetPoint" />
          </mxGeometry>
        </mxCell>
        <mxCell id="hkACoKRm0wRK34MTO_R9-32" value="Administracion" style="text;html=1;strokeColor=none;fillColor=none;align=center;verticalAlign=middle;whiteSpace=wrap;rounded=0;" vertex="1" parent="1">
          <mxGeometry x="26.19999999999999" y="380" width="60" height="30" as="geometry" />
        </mxCell>
      </root>
    </mxGraphModel>
  </diagram>
</mxfile>
